<svg width="373" height="136" viewBox="0 0 373 136" fill="none" xmlns="http://www.w3.org/2000/svg">
<mask id="path-1-outside-1_105_416" maskUnits="userSpaceOnUse" x="0" y="0" width="373" height="136" fill="black">
<rect fill="white" width="373" height="136"/>
<path d="M47.0743 134.309C38.3477 134.309 30.4937 132.813 23.5123 129.821C16.531 126.704 11.0457 122.341 7.05633 116.731C3.067 111.121 1.07233 104.576 1.07233 97.096H23.8863C24.385 102.706 26.5667 107.319 30.4313 110.934C34.4207 114.549 39.9683 116.357 47.0743 116.357C54.4297 116.357 60.1643 114.612 64.2783 111.121C68.3923 107.506 70.4493 102.893 70.4493 97.283C70.4493 92.9197 69.1403 89.3667 66.5223 86.624C64.029 83.8813 60.85 81.762 56.9853 80.266C53.2453 78.77 48.0093 77.1493 41.2773 75.404C32.8 73.16 25.881 70.916 20.5203 68.672C15.2843 66.3033 10.7963 62.688 7.05633 57.826C3.31633 52.964 1.44633 46.4813 1.44633 38.378C1.44633 30.898 3.31633 24.353 7.05633 18.743C10.7963 13.133 16.0323 8.832 22.7643 5.84C29.4963 2.84799 37.288 1.35199 46.1393 1.35199C58.7307 1.35199 69.0157 4.53099 76.9943 10.889C85.0977 17.1223 89.5857 25.7243 90.4583 36.695H66.8963C66.5223 31.9577 64.2783 27.906 60.1643 24.54C56.0503 21.174 50.6273 19.491 43.8953 19.491C37.7867 19.491 32.8 21.0493 28.9353 24.166C25.0707 27.2827 23.1383 31.7707 23.1383 37.63C23.1383 41.6193 24.3227 44.923 26.6913 47.541C29.1847 50.0343 32.3013 52.029 36.0413 53.525C39.7813 55.021 44.8927 56.6417 51.3753 58.387C59.9773 60.7557 66.9587 63.1243 72.3193 65.493C77.8047 67.8617 82.4173 71.5393 86.1573 76.526C90.022 81.388 91.9543 87.933 91.9543 96.161C91.9543 102.768 90.1467 109.002 86.5313 114.861C83.0407 120.72 77.867 125.458 71.0103 129.073C64.2783 132.564 56.2997 134.309 47.0743 134.309ZM185.177 106.446H130.76L121.41 133H99.1568L145.72 2.84799H170.404L216.967 133H194.527L185.177 106.446ZM179.193 89.055L158.062 28.654L136.744 89.055H179.193ZM248.245 115.796H292.19V133H226.927V3.03499H248.245V115.796ZM321.051 20.239V58.387H365.931V75.778H321.051V115.609H371.541V133H299.733V2.84799H371.541V20.239H321.051Z"/>
</mask>
<path d="M23.5123 129.821L23.1047 130.734L23.1115 130.737L23.1184 130.74L23.5123 129.821ZM7.05633 116.731L7.87129 116.151L7.05633 116.731ZM1.07233 97.096V96.096H0.0723343V97.096H1.07233ZM23.8863 97.096L24.8824 97.0075L24.8014 96.096H23.8863V97.096ZM30.4313 110.934L29.7482 111.664L29.754 111.67L29.7598 111.675L30.4313 110.934ZM64.2783 111.121L64.9253 111.884L64.9319 111.878L64.9385 111.872L64.2783 111.121ZM66.5223 86.624L65.7824 87.2967L65.7906 87.3057L65.799 87.3145L66.5223 86.624ZM56.9853 80.266L56.6139 81.1945L56.6243 81.1986L56.9853 80.266ZM41.2773 75.404L41.0214 76.3707L41.0264 76.372L41.2773 75.404ZM20.5203 68.672L20.1082 69.5831L20.1211 69.589L20.1342 69.5944L20.5203 68.672ZM7.05633 18.743L7.88838 19.2977L7.05633 18.743ZM22.7643 5.84L23.1705 6.75381L22.7643 5.84ZM76.9943 10.889L76.3711 11.671L76.3778 11.6764L76.3846 11.6816L76.9943 10.889ZM90.4583 36.695V37.695H91.541L91.4552 36.6157L90.4583 36.695ZM66.8963 36.695L65.8994 36.7737L65.9722 37.695H66.8963V36.695ZM28.9353 24.166L29.5631 24.9444H29.5631L28.9353 24.166ZM26.6913 47.541L25.9498 48.2119L25.9666 48.2304L25.9842 48.2481L26.6913 47.541ZM36.0413 53.525L36.4127 52.5965L36.0413 53.525ZM51.3753 58.387L51.6408 57.4229L51.6353 57.4214L51.3753 58.387ZM72.3193 65.493L71.9152 66.4077L71.9229 66.4111L72.3193 65.493ZM86.1573 76.526L85.3573 77.126L85.3658 77.1372L85.3745 77.1482L86.1573 76.526ZM86.5313 114.861L85.6803 114.336L85.6762 114.343L85.6722 114.349L86.5313 114.861ZM71.0103 129.073L71.4707 129.961L71.4767 129.958L71.0103 129.073ZM47.0743 133.309C38.4631 133.309 30.7459 131.833 23.9063 128.902L23.1184 130.74C30.2414 133.793 38.2323 135.309 47.0743 135.309V133.309ZM23.92 128.908C17.0833 125.856 11.7459 121.6 7.87129 116.151L6.24138 117.311C10.3454 123.082 15.9787 127.553 23.1047 130.734L23.92 128.908ZM7.87129 116.151C4.01285 110.726 2.07233 104.387 2.07233 97.096H0.0723343C0.0723343 104.765 2.12115 111.516 6.24138 117.311L7.87129 116.151ZM1.07233 98.096H23.8863V96.096H1.07233V98.096ZM22.8903 97.1845C23.4092 103.022 25.6916 107.869 29.7482 111.664L31.1145 110.204C27.4417 106.768 25.3608 102.39 24.8824 97.0075L22.8903 97.1845ZM29.7598 111.675C33.9854 115.504 39.8012 117.357 47.0743 117.357V115.357C40.1354 115.357 34.8559 113.594 31.1029 110.193L29.7598 111.675ZM47.0743 117.357C54.5805 117.357 60.5743 115.575 64.9253 111.884L63.6314 110.358C59.7544 113.648 54.2788 115.357 47.0743 115.357V117.357ZM64.9385 111.872C69.2744 108.062 71.4493 103.173 71.4493 97.283H69.4493C69.4493 102.613 67.5102 106.95 63.6182 110.37L64.9385 111.872ZM71.4493 97.283C71.4493 92.7042 70.0681 88.8904 67.2457 85.9335L65.799 87.3145C68.2125 89.843 69.4493 93.1351 69.4493 97.283H71.4493ZM67.2623 85.9513C64.6527 83.0808 61.3385 80.8788 57.3463 79.3334L56.6243 81.1986C60.3615 82.6452 63.4053 84.6818 65.7824 87.2967L67.2623 85.9513ZM57.3567 79.3375C53.5593 77.8185 48.2764 76.1855 41.5283 74.436L41.0264 76.372C47.7422 78.1131 52.9314 79.7215 56.6139 81.1945L57.3567 79.3375ZM41.5332 74.4373C33.0804 72.1998 26.2093 69.9693 20.9065 67.7496L20.1342 69.5944C25.5527 71.8627 32.5196 74.1202 41.0214 76.3707L41.5332 74.4373ZM20.9325 67.7609C15.8562 65.4645 11.4958 61.9571 7.84896 57.2163L6.26371 58.4357C10.0969 63.4189 14.7125 67.1422 20.1082 69.5831L20.9325 67.7609ZM7.84896 57.2163C4.28099 52.5779 2.44633 46.3315 2.44633 38.378H0.446334C0.446334 46.6311 2.35168 53.3501 6.26371 58.4357L7.84896 57.2163ZM2.44633 38.378C2.44633 31.073 4.26971 24.7257 7.88838 19.2977L6.22429 18.1883C2.36295 23.9803 0.446334 30.723 0.446334 38.378H2.44633ZM7.88838 19.2977C11.5136 13.8598 16.5949 9.67627 23.1705 6.75381L22.3582 4.92619C15.4697 7.98773 10.079 12.4062 6.22428 18.1883L7.88838 19.2977ZM23.1705 6.75381C29.7515 3.82889 37.4002 2.35199 46.1393 2.35199V0.35199C37.1758 0.35199 29.2411 1.8671 22.3582 4.92619L23.1705 6.75381ZM46.1393 2.35199C58.5587 2.35199 68.6079 5.48471 76.3711 11.671L77.6175 10.1069C69.4235 3.57727 58.9026 0.35199 46.1393 0.35199V2.35199ZM76.3846 11.6816C84.2453 17.7283 88.6093 26.0612 89.4615 36.7743L91.4552 36.6157C90.562 25.3874 85.95 16.5163 77.604 10.0964L76.3846 11.6816ZM90.4583 35.695H66.8963V37.695H90.4583V35.695ZM67.8932 36.6163C67.4951 31.5738 65.0949 27.2821 60.7976 23.766L59.5311 25.3139C63.4617 28.5299 65.5495 32.3415 65.8994 36.7737L67.8932 36.6163ZM60.7976 23.766C56.4617 20.2185 50.7953 18.491 43.8953 18.491V20.491C50.4593 20.491 55.639 22.1295 59.5311 25.3139L60.7976 23.766ZM43.8953 18.491C37.6124 18.491 32.3881 20.0969 28.3076 23.3876L29.5631 24.9444C33.2119 22.0018 37.9609 20.491 43.8953 20.491V18.491ZM28.3076 23.3876C24.164 26.7292 22.1383 31.529 22.1383 37.63H24.1383C24.1383 32.0123 25.9774 27.8361 29.5631 24.9444L28.3076 23.3876ZM22.1383 37.63C22.1383 41.8327 23.3929 45.3859 25.9498 48.2119L27.4329 46.8701C25.2524 44.4601 24.1383 41.406 24.1383 37.63H22.1383ZM25.9842 48.2481C28.586 50.8499 31.822 52.9143 35.6699 54.4535L36.4127 52.5965C32.7807 51.1437 29.7833 49.2188 27.3984 46.8339L25.9842 48.2481ZM35.6699 54.4535C39.4623 55.9704 44.6162 57.6028 51.1154 59.3526L51.6353 57.4214C45.1691 55.6805 40.1004 54.0716 36.4127 52.5965L35.6699 54.4535ZM51.1099 59.3511C59.6862 61.7127 66.6162 64.0663 71.9152 66.4077L72.7235 64.5783C67.3011 62.1824 60.2685 59.7986 51.6408 57.4229L51.1099 59.3511ZM71.9229 66.4111C77.2412 68.7076 81.7171 72.2724 85.3573 77.126L86.9573 75.926C83.1175 70.8062 78.3681 67.0157 72.7158 64.5749L71.9229 66.4111ZM85.3745 77.1482C89.0587 81.7832 90.9543 88.0854 90.9543 96.161H92.9543C92.9543 87.7806 90.9853 80.9928 86.9402 75.9038L85.3745 77.1482ZM90.9543 96.161C90.9543 102.575 89.2025 108.627 85.6803 114.336L87.3824 115.386C91.0908 109.376 92.9543 102.962 92.9543 96.161H90.9543ZM85.6722 114.349C82.288 120.03 77.2606 124.647 70.5439 128.188L71.4767 129.958C78.4734 126.268 83.7933 121.411 87.3904 115.373L85.6722 114.349ZM70.55 128.185C63.9879 131.588 56.1737 133.309 47.0743 133.309V135.309C56.4256 135.309 64.5688 133.539 71.4706 129.961L70.55 128.185ZM185.177 106.446L186.12 106.114L185.885 105.446H185.177V106.446ZM130.76 106.446V105.446H130.052L129.817 106.114L130.76 106.446ZM121.41 133V134H122.118L122.353 133.332L121.41 133ZM99.1568 133L98.2152 132.663L97.7369 134H99.1568V133ZM145.72 2.84799V1.84799H145.015L144.778 2.51114L145.72 2.84799ZM170.404 2.84799L171.345 2.51114L171.108 1.84799H170.404V2.84799ZM216.967 133V134H218.387L217.908 132.663L216.967 133ZM194.527 133L193.584 133.332L193.819 134H194.527V133ZM179.193 89.055V90.055H180.602L180.137 88.7248L179.193 89.055ZM158.062 28.654L159.006 28.3238L158.066 25.6376L157.119 28.3212L158.062 28.654ZM136.744 89.055L135.801 88.7222L135.33 90.055H136.744V89.055ZM185.177 105.446H130.76V107.446H185.177V105.446ZM129.817 106.114L120.467 132.668L122.353 133.332L131.703 106.778L129.817 106.114ZM121.41 132H99.1568V134H121.41V132ZM100.098 133.337L146.661 3.18484L144.778 2.51114L98.2152 132.663L100.098 133.337ZM145.72 3.84799H170.404V1.84799H145.72V3.84799ZM169.462 3.18484L216.025 133.337L217.908 132.663L171.345 2.51114L169.462 3.18484ZM216.967 132H194.527V134H216.967V132ZM195.47 132.668L186.12 106.114L184.234 106.778L193.584 133.332L195.47 132.668ZM180.137 88.7248L159.006 28.3238L157.118 28.9842L178.249 89.3852L180.137 88.7248ZM157.119 28.3212L135.801 88.7222L137.687 89.3878L159.005 28.9868L157.119 28.3212ZM136.744 90.055H179.193V88.055H136.744V90.055ZM248.245 115.796H247.245V116.796H248.245V115.796ZM292.19 115.796H293.19V114.796H292.19V115.796ZM292.19 133V134H293.19V133H292.19ZM226.927 133H225.927V134H226.927V133ZM226.927 3.03499V2.03499H225.927V3.03499H226.927ZM248.245 3.03499H249.245V2.03499H248.245V3.03499ZM248.245 116.796H292.19V114.796H248.245V116.796ZM291.19 115.796V133H293.19V115.796H291.19ZM292.19 132H226.927V134H292.19V132ZM227.927 133V3.03499H225.927V133H227.927ZM226.927 4.03499H248.245V2.03499H226.927V4.03499ZM247.245 3.03499V115.796H249.245V3.03499H247.245ZM321.051 20.239V19.239H320.051V20.239H321.051ZM321.051 58.387H320.051V59.387H321.051V58.387ZM365.931 58.387H366.931V57.387H365.931V58.387ZM365.931 75.778V76.778H366.931V75.778H365.931ZM321.051 75.778V74.778H320.051V75.778H321.051ZM321.051 115.609H320.051V116.609H321.051V115.609ZM371.541 115.609H372.541V114.609H371.541V115.609ZM371.541 133V134H372.541V133H371.541ZM299.733 133H298.733V134H299.733V133ZM299.733 2.84799V1.84799H298.733V2.84799H299.733ZM371.541 2.84799H372.541V1.84799H371.541V2.84799ZM371.541 20.239V21.239H372.541V20.239H371.541ZM320.051 20.239V58.387H322.051V20.239H320.051ZM321.051 59.387H365.931V57.387H321.051V59.387ZM364.931 58.387V75.778H366.931V58.387H364.931ZM365.931 74.778H321.051V76.778H365.931V74.778ZM320.051 75.778V115.609H322.051V75.778H320.051ZM321.051 116.609H371.541V114.609H321.051V116.609ZM370.541 115.609V133H372.541V115.609H370.541ZM371.541 132H299.733V134H371.541V132ZM300.733 133V2.84799H298.733V133H300.733ZM299.733 3.84799H371.541V1.84799H299.733V3.84799ZM370.541 2.84799V20.239H372.541V2.84799H370.541ZM371.541 19.239H321.051V21.239H371.541V19.239Z" fill="#484848" mask="url(#path-1-outside-1_105_416)"/>
</svg>
